<svg xmlns="http://www.w3.org/2000/svg" viewBox="0 0 120 48" width="120" height="48"><defs><linearGradient id="bg-hot" x1="0%" y1="0%" x2="100%" y2="100%"><stop offset="0%" stop-color="#dc2626"/><stop offset="50%" stop-color="#ea580c"/><stop offset="100%" stop-color="#f59e0b"/></linearGradient><linearGradient id="shine-hot" x1="0%" y1="0%" x2="0%" y2="100%"><stop offset="0%" stop-color="#ffffff" stop-opacity="0.45"/><stop offset="100%" stop-color="#ffffff" stop-opacity="0"/></linearGradient></defs><rect x="2" y="2" width="116" height="44" rx="14" fill="url(#shine-hot)" stroke="#fde047" stroke-width="1.5"/><rect x="3" y="3" width="114" height="20" rx="12" fill="url(#bg-hot)"/><path d="M22 36C26 36 29 33 29 28C29 24 25.5 20.5 25 14C22.5 17 21 20 21 23C19.5 21 19 18.5 19.5 16C16.5 19 15 23.5 15 27.5C15 32.2 18.1 36 22 36Z" fill="#fef08a"/><path d="M22 36C24 36 25.5 34.5 25.5 32C25.5 29.5 23.5 27.5 23 23C21.5 25 20.5 27 20.5 29C19.5 27.5 19.5 26 20 24.5C18 26.5 17 29.5 17 31.5C17 34 19.2 36 22 36Z" fill="#ffffff"/><text x="73" y="31" font-family="system-ui, sans-serif" font-weight="900" font-size="21" fill="#ffffff" text-anchor="middle">HOT</text></svg>